<svg width="1440" height="80" viewBox="0 0 1440 80" fill="none" xmlns="http://www.w3.org/2000/svg">
<g filter="url(#filter0_f_4227_528)">
<path d="M3.22567 37.283C12.465 18.5178 19.3762 16.5437 19.3762 16.5437C19.3762 16.5437 27.1357 6.73519 31.7583 5.5642C36.3809 4.39322 251.289 5.71318 275.632 5.5642C299.975 5.41522 409.007 -9.23421 403.832 13.1998C398.656 35.6339 254.897 49.405 228.795 51.3124C202.694 53.2198 177.652 40.9428 177.652 40.9428C148.255 28.7943 126.742 7.71984 116.09 16.5437C105.438 25.3676 102.412 81.1741 82.3634 79.9812C62.3146 78.7882 7.53247 79.9812 7.53247 79.9812C7.53247 79.9812 -6.01369 56.0482 3.22567 37.283Z" fill="#D1CCC7"/>
<path d="M1370.75 25.0145C1411.25 25.0145 1403.44 11.7453 1419.55 42.1539C1435.65 72.5624 1419.55 58.353 1419.55 58.353L1219.59 40.7452C1219.59 40.7452 1098.24 81.6585 1111.9 40.7452C1125.56 -0.168137 1330.25 25.0145 1370.75 25.0145Z" fill="#D1CCC7"/>
<path d="M600.851 17.4746C610.091 -1.56545 510.535 17.4746 510.535 17.4746C510.535 17.4746 518.294 7.52238 522.917 6.33425C527.539 5.14611 742.447 6.48541 766.79 6.33425C791.134 6.18308 1108.6 17.9826 1103.43 40.7452C1098.25 63.5078 771.283 14.2546 758.909 20.078C746.534 25.9013 674.106 25.9013 674.106 25.9013C644.709 13.5748 617.9 8.52145 607.248 17.4746C596.596 26.4277 620.891 14.4102 600.842 13.1998C580.793 11.9895 578.582 13.1998 578.582 13.1998C578.582 13.1998 591.612 36.5146 600.851 17.4746Z" fill="#D1CCC7"/>
<path d="M1861.91 26.0694C1902.41 26.0694 1894.6 12.6059 1910.71 43.4597C1926.81 74.3136 1910.71 59.896 1910.71 59.896L1710.75 42.0304C1710.75 42.0304 1589.39 83.5429 1603.06 42.0304C1616.72 0.517918 1821.41 26.0694 1861.91 26.0694Z" fill="#D1CCC7"/>
</g>
<defs>
<filter id="filter0_f_4227_528" x="-120" y="-119.271" width="2157.86" height="319.271" filterUnits="userSpaceOnUse" color-interpolation-filters="sRGB">
<feFlood flood-opacity="0" result="BackgroundImageFix"/>
<feBlend mode="normal" in="SourceGraphic" in2="BackgroundImageFix" result="shape"/>
<feGaussianBlur stdDeviation="60" result="effect1_foregroundBlur_4227_528"/>
</filter>
</defs>
</svg>
