<svg width="51" height="44" viewBox="0 0 51 44" fill="none" xmlns="http://www.w3.org/2000/svg">
<g filter="url(#filter0_d_4418_875)">
<path d="M6.2798 35.4003L4.3598 31.9203C9.87981 29.5203 15.8798 24.1203 15.8798 17.7603C15.8798 16.3203 15.6398 14.8803 14.9198 13.3203C13.7198 14.2803 12.3998 14.6403 10.9598 14.6403C7.47981 14.6403 3.9998 12.0003 3.9998 7.92031C3.9998 3.48031 7.3598 0.000309467 12.2798 0.000309467C19.1198 0.000309467 22.8398 6.12031 22.8398 12.8403C22.8398 22.3203 17.4398 30.7203 6.2798 35.4003ZM29.6798 35.4003L27.7598 31.9203C33.2798 29.5203 39.2798 24.1203 39.2798 17.7603C39.2798 16.3203 39.0398 14.8803 38.3198 13.3203C37.1198 14.2803 35.7998 14.6403 34.3598 14.6403C30.8798 14.6403 27.3998 12.0003 27.3998 7.92031C27.3998 3.48031 30.7598 0.000309467 35.6798 0.000309467C42.5198 0.000309467 46.2398 6.12031 46.2398 12.8403C46.2398 22.3203 40.8398 30.7203 29.6798 35.4003Z" fill="#5E4631"/>
</g>
<defs>
<filter id="filter0_d_4418_875" x="0" y="0" width="50.2397" height="43.4004" filterUnits="userSpaceOnUse" color-interpolation-filters="sRGB">
<feFlood flood-opacity="0" result="BackgroundImageFix"/>
<feColorMatrix in="SourceAlpha" type="matrix" values="0 0 0 0 0 0 0 0 0 0 0 0 0 0 0 0 0 0 127 0" result="hardAlpha"/>
<feOffset dy="4"/>
<feGaussianBlur stdDeviation="2"/>
<feComposite in2="hardAlpha" operator="out"/>
<feColorMatrix type="matrix" values="0 0 0 0 0 0 0 0 0 0 0 0 0 0 0 0 0 0 0.25 0"/>
<feBlend mode="normal" in2="BackgroundImageFix" result="effect1_dropShadow_4418_875"/>
<feBlend mode="normal" in="SourceGraphic" in2="effect1_dropShadow_4418_875" result="shape"/>
</filter>
</defs>
</svg>
